<svg width="1920" height="716" viewBox="0 0 1920 716" fill="none" xmlns="http://www.w3.org/2000/svg">
<path d="M0 438C292.234 485.966 464.665 488.695 758.277 450C889.257 432.738 962.78 419.359 1090.05 384C1169.06 362.052 1212.55 346.722 1289.52 318.5C1548.4 223.584 1689.71 152.422 1920 1" stroke="#CF2929"/>
<path d="M0 676C292.234 723.966 464.665 726.695 758.277 688C889.257 670.738 962.78 657.359 1090.05 622C1169.06 600.052 1212.55 584.722 1289.52 556.5C1548.4 461.584 1689.71 390.422 1920 239" stroke="#CF2929"/>
<path d="M0 444.884C292.234 492.851 464.665 495.579 758.277 456.884C889.257 439.622 962.78 426.244 1090.05 390.884C1169.06 368.936 1212.55 353.606 1289.52 325.384C1548.4 230.469 1689.71 159.306 1920 7.88428" stroke="#CF2929"/>
<path d="M0 454.719C292.234 502.685 464.665 505.414 758.277 466.719C889.257 449.457 962.78 436.078 1090.05 400.719C1169.06 378.771 1212.55 363.441 1289.52 335.219C1548.4 240.303 1689.71 169.141 1920 17.719" stroke="#CF2929"/>
<path d="M0 467.504C292.234 515.47 464.665 518.199 758.277 479.504C889.257 462.242 962.78 448.863 1090.05 413.504C1169.06 391.556 1212.55 376.226 1289.52 348.004C1548.4 253.089 1689.71 181.926 1920 30.5042" stroke="#CF2929"/>
<path d="M0 483.24C292.234 531.206 464.665 533.935 758.277 495.24C889.257 477.978 962.78 464.599 1090.05 429.24C1169.06 407.291 1212.55 391.962 1289.52 363.74C1548.4 268.824 1689.71 197.661 1920 46.2396" stroke="#CF2929"/>
<path d="M0 501.926C292.234 549.892 464.665 552.621 758.277 513.926C889.257 496.664 962.78 483.285 1090.05 447.926C1169.06 425.978 1212.55 410.648 1289.52 382.426C1548.4 287.51 1689.71 216.347 1920 64.9257" stroke="#CF2929"/>
<path d="M0 523.562C292.234 571.528 464.665 574.257 758.277 535.562C889.257 518.3 962.78 504.921 1090.05 469.562C1169.06 447.614 1212.55 432.284 1289.52 404.062C1548.4 309.146 1689.71 237.984 1920 86.562" stroke="#CF2929"/>
<path d="M0 548.149C292.234 596.115 464.665 598.844 758.277 560.149C889.257 542.887 962.78 529.508 1090.05 494.149C1169.06 472.201 1212.55 456.871 1289.52 428.649C1548.4 333.733 1689.71 262.57 1920 111.149" stroke="#CF2929"/>
<path d="M0 575.686C292.234 623.652 464.665 626.381 758.277 587.686C889.257 570.424 962.78 557.045 1090.05 521.686C1169.06 499.738 1212.55 484.408 1289.52 456.186C1548.4 361.27 1689.71 290.107 1920 138.686" stroke="#CF2929"/>
<path d="M0 606.174C292.234 654.14 464.665 656.869 758.277 618.174C889.257 600.912 962.78 587.533 1090.05 552.174C1169.06 530.225 1212.55 514.896 1289.52 486.674C1548.4 391.758 1689.71 320.595 1920 169.174" stroke="#CF2929"/>
<path d="M0 639.612C292.234 687.578 464.665 690.307 758.277 651.612C889.257 634.35 962.78 620.971 1090.05 585.612C1169.06 563.663 1212.55 548.334 1289.52 520.112C1548.4 425.196 1689.71 354.033 1920 202.612" stroke="#CF2929"/>
</svg>
