<svg class="animated" id="freepik_stories-paralympic-judo" xmlns="http://www.w3.org/2000/svg" viewBox="0 0 500 500" version="1.1" xmlns:xlink="http://www.w3.org/1999/xlink" xmlns:svgjs="http://svgjs.com/svgjs"><style>svg#freepik_stories-paralympic-judo:not(.animated) .animable {opacity: 0;}svg#freepik_stories-paralympic-judo.animated #freepik--background-simple--inject-14 {animation: 1s 1 forwards cubic-bezier(.36,-0.01,.5,1.38) slideUp;animation-delay: 0s;}svg#freepik_stories-paralympic-judo.animated #freepik--Floor--inject-14 {animation: 1s 1 forwards cubic-bezier(.36,-0.01,.5,1.38) slideRight;animation-delay: 0s;}svg#freepik_stories-paralympic-judo.animated #freepik--Icon--inject-14 {animation: 1s 1 forwards cubic-bezier(.36,-0.01,.5,1.38) slideDown;animation-delay: 0s;}svg#freepik_stories-paralympic-judo.animated #freepik--Characters--inject-14 {animation: 1s 1 forwards cubic-bezier(.36,-0.01,.5,1.38) slideLeft;animation-delay: 0s;}            @keyframes slideUp {                0% {                    opacity: 0;                    transform: translateY(30px);                }                100% {                    opacity: 1;                    transform: inherit;                }            }                    @keyframes slideRight {                0% {                    opacity: 0;                    transform: translateX(30px);                }                100% {                    opacity: 1;                    transform: translateX(0);                }            }                    @keyframes slideDown {                0% {                    opacity: 0;                    transform: translateY(-30px);                }                100% {                    opacity: 1;                    transform: translateY(0);                }            }                    @keyframes slideLeft {                0% {                    opacity: 0;                    transform: translateX(-30px);                }                100% {                    opacity: 1;                    transform: translateX(0);                }            }        .animator-hidden { display: none; }</style><g id="freepik--background-simple--inject-14" class="animable animator-hidden" style="transform-origin: 245.714px 253.817px;"><g id="elaagtesitwke" class="animable" style="transform-origin: 245.714px 253.817px;"><path d="M443.78639,116.2174c-3.2271-5.2293-6.7941-10.306-10.7447-15.2037-31.7958-39.421-73.3673-56.0963-120.8629-67.2735-49.0529-11.5433-106.4861-15.1759-153.57779,5.6938-11.0853,4.9128-21.5944,11.4924-29.9583,20.4062-31.5032,33.5747-42.3044,89.8351-77.4081,134.2989C16.131,238.6027-.97081,293.9554,30.5324,346.5861c13.3321,22.273,30.331,40.6482,50.4456,56.7695,24.7664,19.8496,46.1282,46.6225,74.7482,62.1183,30.0812,16.287,70.1433,21.9614,103.4315,14.5033,37.9796-8.5093,60.2562-42.3431,89.2489-65.4187,22.8562-18.1915,50.1966-30.0976,72.5936-48.8606,34.3132-28.7453,60.3276-74.9493,55.9786-120.7448-4.2187-44.4231-9.6824-90.638-33.1924-128.7357Z" style="fill: #CD0000; transform-origin: 245.714px 253.817px;" id="elp58jnuwco9" class="animable"></path><g id="eldge76j5v36"><path d="M443.78639,116.2174c-3.2271-5.2293-6.7941-10.306-10.7447-15.2037-31.7958-39.421-73.3673-56.0963-120.8629-67.2735-49.0529-11.5433-106.4861-15.1759-153.57779,5.6938-11.0853,4.9128-21.5944,11.4924-29.9583,20.4062-31.5032,33.5747-42.3044,89.8351-77.4081,134.2989C16.131,238.6027-.97081,293.9554,30.5324,346.5861c13.3321,22.273,30.331,40.6482,50.4456,56.7695,24.7664,19.8496,46.1282,46.6225,74.7482,62.1183,30.0812,16.287,70.1433,21.9614,103.4315,14.5033,37.9796-8.5093,60.2562-42.3431,89.2489-65.4187,22.8562-18.1915,50.1966-30.0976,72.5936-48.8606,34.3132-28.7453,60.3276-74.9493,55.9786-120.7448-4.2187-44.4231-9.6824-90.638-33.1924-128.7357Z" style="fill: rgb(255, 255, 255); opacity: 0.7; transform-origin: 245.714px 253.817px;" class="animable" id="elbw3f2by65r"></path></g></g></g><g id="freepik--Floor--inject-14" class="animable animator-hidden" style="transform-origin: 244.716px 409.355px;"><line x1="35.2371" y1="409.355" x2="454.19439" y2="409.355" style="fill: none; stroke: rgb(38, 50, 56); stroke-linecap: round; stroke-linejoin: round; transform-origin: 244.716px 409.355px;" id="els4mtfaklad" class="animable"></line></g><g id="freepik--Icon--inject-14" class="animable animator-hidden" style="transform-origin: 415.106px 91.8752px;"><g id="elrx9hhhehimo" class="animable" style="transform-origin: 415.106px 91.8752px;"><g id="el2rnmw669slx" class="animable" style="transform-origin: 416.849px 91.2666px;"><path d="M416.84863,114.7041c-25.0918,0-39.03711-22.59277-39.1748-22.82129-.16016-.26367-.18848-.58643-.07812-.87451,.08887-.23193,9.22363-23.1792,39.25293-23.1792,26.96289,0,39.08789,22.84668,39.20801,23.07715,.15527,.30078,.14746,.65967-.01953,.95361-.12988,.22852-13.2832,22.84424-39.18848,22.84424Zm-37.19043-23.43164c2.02051,3.0498,15.12012,21.43164,37.19043,21.43164,22.66504,0,35.14648-18.17041,37.16113-21.35986-1.88086-3.22559-13.59082-21.51514-37.16113-21.51514-26.2959,0-35.76465,18.30957-37.19043,21.44336Z" style="fill: #CD0000; transform-origin: 416.849px 91.2666px;" id="elo87x1kfut4f" class="animable"></path><g id="ely8z6qk6tvts" class="animable" style="transform-origin: 416.849px 91.0925px;"><circle cx="416.84874" cy="91.09255" r="18.105" style="fill: #CD0000; transform-origin: 416.849px 91.0926px;" id="elv36afjg77l" class="animable"></circle><path d="M416.84863,109.69775c-10.25879,0-18.60449-8.34619-18.60449-18.60498s8.3457-18.60547,18.60449-18.60547,18.60547,8.34619,18.60547,18.60547-8.34668,18.60498-18.60547,18.60498Zm0-36.21045c-9.70703,0-17.60449,7.89795-17.60449,17.60547s7.89746,17.60498,17.60449,17.60498c9.70801,0,17.60547-7.89746,17.60547-17.60498s-7.89746-17.60547-17.60547-17.60547Z" style="fill: #CD0000; transform-origin: 416.849px 91.0925px;" id="eldug9v0ned7m" class="animable"></path></g></g><g id="elxdmtiyicyl" class="animable" style="transform-origin: 414.789px 91.8752px;"><path d="M376.61035,132.61914c-.25586,0-.51172-.09766-.70703-.29297-.39062-.39062-.39062-1.02344,0-1.41406l77.92188-77.92236c.39062-.39062,1.02344-.39062,1.41406,0s.39062,1.02344,0,1.41406l-77.92188,77.92236c-.19531,.19531-.45117,.29297-.70703,.29297Z" style="fill: rgb(255, 255, 255); transform-origin: 415.571px 92.658px;" id="eluoyf7nh5fkn" class="animable"></path><path d="M375.04492,131.05371c-.25586,0-.51172-.09766-.70703-.29297-.39062-.39062-.39062-1.02344,0-1.41406l77.92188-77.92236c.39062-.39062,1.02344-.39062,1.41406,0s.39062,1.02344,0,1.41406l-77.92188,77.92236c-.19531,.19531-.45117,.29297-.70703,.29297Z" style="fill: #CD0000; transform-origin: 414.006px 91.0925px;" id="elr4vpj0eyi99" class="animable"></path></g></g></g><g id="freepik--Characters--inject-14" class="animable" style="transform-origin: 220.222px 263.13px;"><g id="elqo0r7xrq2z" class="animable" style="transform-origin: 220.222px 263.13px;"><g id="ellkzs4rj65qj" class="animable" style="transform-origin: 272.391px 264.953px;"><path d="M331.40149,422.9294s3.1374,9.0637,7.8436,13.4212c4.7061,4.3575,12.5496,7.4949,15.8613,7.6692,3.3118,.1743,8.5408,.3486,9.238,3.1375,.6972,2.7888-.5229,3.486-2.2659,3.486s-4.5318,.1743-5.229,.1743c-.6973,0-14.1184,1.3944-22.6592,.3486-8.5407-1.0458-20.0446,.8715-22.1362-.3486s-2.0916-7.6693-.5229-11.1553,2.78881-5.7519,2.9631-6.4491c.1743-.6972,.1743-10.1095,.1743-10.1095l16.7329-.1743Z" style="fill: rgb(255, 255, 255); stroke: rgb(38, 50, 56); stroke-linecap: round; stroke-linejoin: round; transform-origin: 337.478px 437.242px;" id="elou1qdda9ajb" class="animable"></path><path d="M331.93689,424.8241l-17.4426,8.3891s-.2252-5.0764-.2252-5.7389c0-.6626,17.6678-2.6502,17.6678-2.6502Z" style="fill: rgb(38, 50, 56); stroke: rgb(38, 50, 56); stroke-linecap: round; stroke-linejoin: round; transform-origin: 323.103px 429.019px;" id="elkmm71sukk8" class="animable"></path><path d="M229.692,287.1638l9.31979-12.7369s25.16321,33.551,35.4149,55.9184c10.2517,22.3673,13.669,104.0703,13.669,104.0703l46.288-9.6304s2.1746-62.1315-5.2812-87.9161c-7.4558-25.7846-28.58049-85.7416-29.51249-89.4695s-2.396-17.7673-2.13-19.2907c.26609-1.5233,2.75129-9.6004,2.75129-9.6004l-64.6168-2.7959-27.64849,48.4626,21.746,22.9886Z" style="fill: rgb(255, 255, 255); stroke: rgb(38, 50, 56); stroke-linecap: round; stroke-linejoin: round; transform-origin: 271.312px 325.064px;" id="elt4qxyxt6qe7" class="animable"></path><path d="M299.59,247.3996c-.932-3.7278-2.39611-17.7673-2.13-19.2907,.26609-1.5233,2.75129-9.6004,2.75129-9.6004l-64.6168-2.796-27.64849,48.4627,21.746,22.9886,9.31969-12.7369s7.2934,9.7267,15.6254,22.193c14.0682-11.1762,31.7835-23.8647,50.1897-33.5341-2.9249-8.5794-4.9616-14.5854-5.23679-15.6862Z" style="fill: rgb(222, 222, 222); transform-origin: 256.386px 256.166px;" id="elvq957mzrbeh" class="animable"></path><path d="M316.69869,393.6469c2.1356,2.5678,4.0614,4.6039,5.6628,5.885" style="fill: none; stroke: rgb(38, 50, 56); stroke-linecap: round; stroke-linejoin: round; transform-origin: 319.53px 396.589px;" id="elznuxm9in9zg" class="animable"></path><path d="M279.84829,337.4204s19.1524,32.9953,33.0951,51.4645" style="fill: none; stroke: rgb(38, 50, 56); stroke-linecap: round; stroke-linejoin: round; transform-origin: 296.396px 363.153px;" id="el91kck60iflj" class="animable"></path><line x1="287.68759" y1="359.1293" x2="301.55709" y2="385.6624" style="fill: none; stroke: rgb(38, 50, 56); stroke-linecap: round; stroke-linejoin: round; transform-origin: 294.622px 372.396px;" id="elprgz4bi8xge" class="animable"></line><path d="M229.692,287.1638l9.31979-12.7369s25.16321,33.551,35.4149,55.9184c10.2517,22.3673,13.669,104.0703,13.669,104.0703l46.288-9.6304s2.1746-62.1315-5.2812-87.9161c-7.4558-25.7846-28.58049-85.7416-29.51249-89.4695s-2.396-17.7673-2.13-19.2907c.26609-1.5233,2.75129-9.6004,2.75129-9.6004l-64.6168-2.7959-27.64849,48.4626,21.746,22.9886Z" style="fill: none; stroke: rgb(38, 50, 56); stroke-linecap: round; stroke-linejoin: round; transform-origin: 271.312px 325.064px;" id="elqzuy925lchd" class="animable"></path><path d="M236.46149,229.5358s5.5291,2.497,11.4149,2.1403,9.8097-1.6052,9.8097-1.6052l5.3508,7.1343,7.3127-9.2746,7.3126-19.6194s-26.7537,.1783-32.2828-1.962-6.956-2.3186-6.956-2.3186l-1.9619,25.5052Z" style="fill: rgb(38, 50, 56); stroke: rgb(38, 50, 56); stroke-linecap: round; stroke-linejoin: round; transform-origin: 257.062px 220.618px;" id="ele57b78u1idj" class="animable"></path><path d="M296.63109,112.8494s-11.4262,15.5812-13.6768,23.8912c-2.2506,8.3099-4.5012,17.1393-4.5012,17.1393,0,0-24.5837,32.028-30.1237,38.6067s-8.4831,14.5425-6.9249,16.1006c1.5581,1.5581,7.2712,4.155,16.2736,3.1162,9.0025-1.0387,14.5425-2.0775,14.5425-2.0775,0,0,44.1467-61.8054,46.0511-67.1722,1.9044-5.3669-21.6406-29.6043-21.6406-29.6043Z" style="fill: rgb(255, 255, 255); stroke: rgb(38, 50, 56); stroke-linecap: round; stroke-linejoin: round; transform-origin: 279.685px 162.396px;" id="elgmft39rmfeb" class="animable"></path><path d="M293.62929,127.1317s2.3945,30.7865,3.42071,31.1286c1.02619,.3421,19.156-1.0262,19.156-1.0262l4.10489-25.9975-26.6816-4.1049Z" style="fill: rgb(38, 50, 56); stroke: rgb(38, 50, 56); stroke-linecap: round; stroke-linejoin: round; transform-origin: 306.97px 142.723px;" id="el69rpnuwq3yp" class="animable"></path><path d="M303.34579,107.7171l-20.8679-9.453s-53.3291,65.9926-61.17689,76.3373c-7.84771,10.3448-28.0022,72.0568-28.0022,72.0568l21.7597,24.6134s16.5873-18.9059,22.4731-33.1746,3.9239-27.1105,8.0261-33.7097c4.10231-6.5993,11.05831-17.4791,11.05831-17.4791,0,0,21.938-29.9642,23.18649-36.5635,1.24851-6.5992,5.8859-22.2948,9.6314-26.9321s11.5933-13.0201,11.5933-13.0201l2.3186-2.6754Z" style="fill: rgb(255, 255, 255); stroke: rgb(38, 50, 56); stroke-linecap: round; stroke-linejoin: round; transform-origin: 248.322px 184.768px;" id="elb3awadblkc6" class="animable"></path><path d="M271.41969,214.0186s-10.8799,21.9381-14.9821,47.265-1.4269,46.3731,1.0702,44.7679c2.497-1.6052,23.9-30.6776,30.6776-43.1627,6.77761-12.4851,6.77761-14.8037,7.6694-22.2948,.8918-7.491,1.60521-12.4851,1.60521-12.4851,0,0-17.47911-23.0082-26.04031-14.0903Z" style="fill: rgb(255, 255, 255); stroke: rgb(38, 50, 56); stroke-linecap: round; stroke-linejoin: round; transform-origin: 275.888px 259.051px;" id="elbdi07tzu3ea" class="animable"></path><path d="M289.969,252.1873c.17829-7.4911-7.31271-10.8799-14.62541-19.7978-5.3984-6.5834-5.8374-12.0877-5.6984-14.5235-3.2564,7.3697-10.1341,24.4419-13.2076,43.4176-3.2077,19.8035-2.2713,36.9888-.5167,42.7757,.3624-.2023,.7058-.4229,1.0113-.6673,2.7337-2.187,24.6539-33.1905,24.6539-33.1905,.7135-1.4269,8.2045-10.5232,8.38291-18.0142Z" style="fill: rgb(222, 222, 222); stroke: rgb(38, 50, 56); stroke-linecap: round; stroke-linejoin: round; transform-origin: 272.144px 260.963px;" id="elwkk4k323zes" class="animable"></path><path d="M264.99879,196.7179s3.0321,17.6574,8.3828,28.7157c5.3508,11.0582,7.7821,12.376,11.7388,11.0928,3.9568-1.2831,7.8807-6.9906,6.4538-14.3033s-6.4209-18.1925-6.4209-18.1925l-20.1545-7.3127Z" style="fill: rgb(178, 178, 178); stroke: rgb(38, 50, 56); stroke-linecap: round; stroke-linejoin: round; transform-origin: 278.436px 216.823px;" id="elwdk7lin0j3e" class="animable"></path><path d="M290.14729,216.5156s-5.3507-.8917-15.5171-8.9179c-10.1665-8.0261-19.7978-13.1985-23.5433-16.4089-3.7456-3.2105-1.2486-4.2806-.1784-4.6373,1.0701-.3568,33.1746,5.3507,33.7097,5.5291,.5351,.1783,5.35081,14.0903,5.5291,24.435Z" style="fill: rgb(255, 255, 255); stroke: rgb(38, 50, 56); stroke-linecap: round; stroke-linejoin: round; transform-origin: 269.622px 201.526px;" id="eldh2vq8vckon" class="animable"></path><polygon points="278.43549 190.3221 278.88469 210.3076 287.74379 216.6355 284.61819 192.0806 278.43549 190.3221" style="fill: rgb(38, 50, 56); stroke: rgb(38, 50, 56); stroke-linecap: round; stroke-linejoin: round; transform-origin: 283.09px 203.479px;" id="el5s2119ijnb6" class="animable"></polygon><path d="M329.55529,132.1242s13.1731,9.4375,15.1393,23.7903c1.9661,14.3529-4.7188,31.4583-6.4883,37.9466s-2.556,11.6003-10.2239,19.4648c-7.668,7.8646-11.6003,14.3529-23.79039,18.4818-12.19011,4.1289-19.07161,4.7187-19.07161,4.7187,0,0,4.3255-1.5729,1.5729-16.7122s-8.2578-29.4921-8.2578-29.4921c0,0,15.9258-13.7631,17.10551-15.336,1.17969-1.5729,8.06119-9.0442,11.60019-14.9427,3.5391-5.8984,11.4037-22.414,11.4037-22.414,0,0,2.3593-7.4713,11.0104-5.5052Z" style="fill: rgb(255, 255, 255); stroke: rgb(38, 50, 56); stroke-linecap: round; stroke-linejoin: round; transform-origin: 311.744px 184.16px;" id="elibw5dilan7" class="animable"></path><g id="el0ncmgwrtnqql" class="animable" style="transform-origin: 322.62px 113.741px;"><path d="M300.72239,100.9289s-1.6877-4.4495-3.3755-2.6083c-1.6877,1.8412-.6137,9.5128-.7671,10.8937-.1535,1.3809-3.2222,10.7404-2.9153,15.8037s3.2221,19.0257,5.83051,21.1738c2.60839,2.1481,7.82509,4.9099,11.20059,3.529,3.3756-1.3809,14.7296-10.2801,17.9517-13.1953,3.2221-2.9153,5.0633-5.5236,5.0633-5.5236,0,0,9.5129-9.3595,9.66641-11.3541,.15339-1.9946-.76721-3.2221-.76721-3.2221,0,0,3.9893-.4603,2.4549-9.0526-1.5343-8.5922-32.6813-14.883-38.0515-14.5762-5.3701,.3069-6.2908,8.132-6.2908,8.132Z" style="fill: rgb(255, 255, 255); stroke: rgb(38, 50, 56); stroke-linecap: round; stroke-linejoin: round; transform-origin: 319.529px 121.439px;" id="elym74hogebdg" class="animable"></path><path d="M343.83719,85.5856c-1.9946-1.5344-4.9098-5.3702-9.5128-3.6825,0,0-6.2908-5.677-13.96239-4.2961-7.67171,1.3809-12.88851,5.5236-15.34341,10.1266s-3.529,7.8251-3.6824,8.7457c-.1534,.9207-.6138,3.8359-.6138,4.4496,0,.6138,2.1481-1.2275,2.1481-1.2275,0,0-2.30149,4.603-2.4549,5.0634-.1534,.4602,1.9946,0,3.9893,0,1.9946,0,5.9839-1.5344,5.9839-1.5344l-3.2222,4.2962s2.4487,2.0134,5.6716,4.3138l-3.37,1.2098s3.6823,2.9152,4.4495,3.0686c.7672,.1535,5.06331,.7672,5.06331,.7672l-2.45491,1.8412s7.058,2.6084,10.58691,.9206c.685-.3277,1.39269-.7784,2.08919-1.2893,2.9755-.6251,4.355-2.3931,4.355-2.3931l.1535,3.8358,3.3755-5.677-.1534,4.7564s2.91521-3.529,3.2221-3.9892c.3068-.4604-2.1481,4.9098-2.9153,7.0579s2.60841-2.3015,4.9099-3.9893c2.30151-1.6877,8.4388-8.5923,9.3594-14.5761,.9206-5.9839-5.677-16.264-7.6717-17.7983Z" style="fill: rgb(38, 50, 56); stroke: rgb(38, 50, 56); stroke-linecap: round; stroke-linejoin: round; transform-origin: 326.002px 99.957px;" id="elxhlwp06e86" class="animable"></path><path d="M307.627,131.1553s.46029,3.8358,2.91519,4.2961,5.0633-.7671,5.0633-.7671" style="fill: none; stroke: rgb(38, 50, 56); stroke-linecap: round; stroke-linejoin: round; transform-origin: 311.616px 133.355px;" id="elnbjb4ep93t" class="animable"></path><path d="M303.33079,135.9117s8.4389,4.1428,9.5129,4.6031" style="fill: none; stroke: rgb(38, 50, 56); stroke-linecap: round; stroke-linejoin: round; transform-origin: 308.087px 138.213px;" id="elqj98x3dwdgj" class="animable"></path><path d="M332.02289,125.6317c-3.3756-1.9946-11.3541-2.1481-11.3541-2.1481,0,0-1.0332-1.5088,1.84121-1.9946,4.48119-.7574,10.63339,3.6007,9.51289,4.1427Z" style="fill: rgb(38, 50, 56); stroke: rgb(38, 50, 56); stroke-linecap: round; stroke-linejoin: round; transform-origin: 326.322px 123.516px;" id="el8lxhnud646m" class="animable"></path><path d="M304.40219,111.9868c3.5887,1.5792,8.36581,7.9714,8.36581,7.9714,0,0,1.82819-.0404,.54679-2.6588-1.99779-4.0822-9.1257-6.5389-8.9126-5.3126Z" style="fill: rgb(38, 50, 56); stroke: rgb(38, 50, 56); stroke-linecap: round; stroke-linejoin: round; transform-origin: 309.084px 115.814px;" id="elh9belc457c7" class="animable"></path><line x1="338.16019" y1="121.7959" x2="334.93809" y2="127.4729" style="fill: none; stroke: rgb(38, 50, 56); stroke-linecap: round; stroke-linejoin: round; transform-origin: 336.549px 124.634px;" id="elsm5pbla7ar" class="animable"></line><line x1="300.41559" y1="104.7648" x2="299.18809" y2="108.9075" style="fill: none; stroke: rgb(38, 50, 56); stroke-linecap: round; stroke-linejoin: round; transform-origin: 299.802px 106.836px;" id="elnci67hx9gx" class="animable"></line><path d="M304.71169,117.96s3.529,.4603,5.8305,3.9893" style="fill: none; stroke: rgb(38, 50, 56); stroke-linecap: round; stroke-linejoin: round; transform-origin: 307.627px 119.955px;" id="elbcpo2q2q9y7" class="animable"></path><path d="M320.20849,125.7851s4.1427-1.2274,8.132,1.9947" style="fill: none; stroke: rgb(38, 50, 56); stroke-linecap: round; stroke-linejoin: round; transform-origin: 324.274px 126.668px;" id="elfcfqfn5kbmh" class="animable"></path><path d="M309.62159,123.0233s-2.9152-1.3809-4.44959-2.6083" style="fill: none; stroke: rgb(38, 50, 56); stroke-linecap: round; stroke-linejoin: round; transform-origin: 307.397px 121.719px;" id="elvmwvcrgxbgc" class="animable"></path><path d="M320.97569,126.8592s2.3015,1.8412,4.1427,1.9946" style="fill: none; stroke: rgb(38, 50, 56); stroke-linecap: round; stroke-linejoin: round; transform-origin: 323.047px 127.857px;" id="elhi1kca5kk68" class="animable"></path></g><path d="M205.68249,416.2372s-4.5704,16.5677-5.4273,18.2816c-.857,1.7139-4.8561,8.2838-7.1413,9.7121-2.2852,1.4282-13.4255,4.2847-12.8542,5.9986,.5713,1.7139,13.9968,1.7139,15.9964,1.7139,1.9995,0,29.7075,.5713,29.7075,.5713,0,0,1.7139-5.4273,1.9995-9.9977,.2857-4.5704-1.4282-7.7126-1.7139-10.8547-.2856-3.1421-.6829-16.4683-.6829-16.4683l-19.8838,1.0432Z" style="fill: rgb(255, 255, 255); stroke: rgb(38, 50, 56); stroke-linecap: round; stroke-linejoin: round; transform-origin: 204.117px 433.854px;" id="eln24svnc8u0a" class="animable"></path><path d="M193.9709,346.5388s.8569,38.5627,0,44.847c-.857,6.2842-1.9996,23.4232-1.9996,23.4232,0,0,17.7103,5.9986,21.7094,5.9986s23.1376,1.1426,23.1376,1.1426l2.2852-73.4118-45.1326-1.9996Z" style="fill: rgb(255, 255, 255); stroke: rgb(38, 50, 56); stroke-linecap: round; stroke-linejoin: round; transform-origin: 215.537px 384.244px;" id="elkmo61l5vsn" class="animable"></path><path d="M309.23169,197.253s3.0321,4.6373,17.4791-3.2105" style="fill: none; stroke: rgb(38, 50, 56); stroke-linecap: round; stroke-linejoin: round; transform-origin: 317.971px 196.328px;" id="elkrbi3sl374p" class="animable"></path><path d="M331.34809,187.0865s-1.0702,5.3508-14.2687,7.4911" style="fill: none; stroke: rgb(38, 50, 56); stroke-linecap: round; stroke-linejoin: round; transform-origin: 324.214px 190.832px;" id="ely1vrp3ggt1" class="animable"></path></g><g id="el6b9p9lntnlw" class="animable" style="transform-origin: 203.236px 263.13px;"><path d="M274.21789,69.3038s-4.6856-2.8521-13.4456-2.0372-14.668,5.2968-18.335,10.5936c-3.667,5.2967-4.88929,8.9637-5.5005,10.186-.6111,1.2224-1.426,3.4633-1.426,3.4633l-1.0186,1.6298-.8149,3.2595s29.7434,34.429,29.9471,35.6514c.2037,1.2223,2.6484,1.426,2.6484,1.426,0,0,5.2968-4.8893,7.9451-7.7414,2.6484-2.8521,9.575-10.1861,11.4085-13.2419,1.8335-3.0559,4.8893-10.7973,4.8893-11.6122s1.22231,2.4447,1.6298,0c.4074-2.4446-.2038-8.9637-.40749-9.9824-.20371-1.0186,2.64839,2.4447,2.241-.8148-.40751-3.2596-4.48191-11.4085-9.37131-14.8717-4.8893-3.4633-10.3898-5.908-10.3898-5.908Z" style="fill: rgb(255, 255, 255); stroke: rgb(38, 50, 56); stroke-linecap: round; stroke-linejoin: round; transform-origin: 263.848px 100.298px;" id="eljvcnij8s68" class="animable"></path><path d="M293.979,90.0834c-.40751-3.2595-4.48191-11.4084-9.37131-14.8717-4.8893-3.4632-10.3898-5.9079-10.3898-5.9079,0,0-4.6856-2.8521-13.4456-2.0372-8.7601,.8149-14.668,5.2968-18.335,10.5935-3.667,5.2968-4.88929,8.9638-5.5004,10.1861-.6112,1.2224-1.4261,3.4633-1.4261,3.4633l-1.0186,1.6298-.8149,3.2595s1.7555,2.0324,4.4059,5.1142l8.0211,2.831s6.11171,3.8707,9.5749,3.8707,13.6494-2.0372,13.6494-2.0372l-2.2409,1.6298s5.093-.8149,6.7228-.8149,4.6856,1.2223,4.6856,3.667-2.0372,5.093-1.2223,5.5005c.8148,.4074,1.6297,.8148,2.8521,0l1.2223-.8149s.7572,.3778,1.5614,.7477c1.18641-1.4209,2.176-2.6985,2.7168-3.5998,1.8335-3.0559,4.8893-10.7973,4.8893-11.6122s1.22231,2.4447,1.6298,0c.4074-2.4447-.2038-8.9638-.40749-9.9824-.20371-1.0186,2.64839,2.4447,2.241-.8149Z" style="fill: rgb(38, 50, 56); stroke: rgb(38, 50, 56); stroke-linecap: round; stroke-linejoin: round; transform-origin: 263.848px 91.8752px;" id="elkxgel7u9joa" class="animable"></path><g id="ela7j8hy99pb" class="animable" style="transform-origin: 273.548px 113.755px;"><path d="M276.05139,113.7152s7.5377-7.5377,3.667-7.5377-10.3898,8.3526-12.0196,11.8158c-1.6297,3.4633,.4075,3.8708,1.6298,2.8522" style="fill: rgb(255, 255, 255); stroke: rgb(38, 50, 56); stroke-linecap: round; stroke-linejoin: round; transform-origin: 273.958px 113.755px;" id="elxmerunisstf" class="animable"></path><path d="M274.42169,108.8259s-5.2968,.2037-6.7229,3.8707l-1.426,3.667" style="fill: none; stroke: rgb(38, 50, 56); stroke-linecap: round; stroke-linejoin: round; transform-origin: 270.347px 112.595px;" id="elkcyvmjaj4s" class="animable"></path></g><path d="M220.02789,192.7593s-6.5191,31.3731-13.4456,40.5406-9.7787,9.7786-9.7787,9.7786l-16.2977-20.5759s-.8149-5.9079,4.8893-9.7786c5.7042-3.8707,34.6327-19.9647,34.6327-19.9647Z" style="fill: #CD0000; stroke: rgb(38, 50, 56); stroke-linecap: round; stroke-linejoin: round; transform-origin: 200.247px 217.919px;" id="elhq3gbodp74" class="animable"></path><g id="elxcyna80klwm"><path d="M218.20489,191.392s-6.5191,31.3732-13.4456,40.5407c-6.9265,9.1674-9.7786,9.7786-9.7786,9.7786l-16.2978-20.5759s-.8149-5.9079,4.8893-9.7786c5.7042-3.8708,34.6327-19.9648,34.6327-19.9648Z" style="opacity: 0.3; stroke: rgb(38, 50, 56); stroke-linecap: round; stroke-linejoin: round; transform-origin: 198.424px 216.552px;" class="animable" id="elqtkfk1f46ea"></path></g><g id="el9bd3z369sfd" class="animable" style="transform-origin: 307.389px 165.534px;"><path d="M287.36049,159.6312s-.18549-3.3381,1.2982-4.2654c1.4836-.9273,5.0072-4.08,5.5636-2.04,.5563,2.04-1.1127,3.3382-1.6691,3.7091,0,0,9.0872-2.5964,13.909-3.7091,4.82181-1.1127,8.3454-3.3382,11.869-3.7091s5.7491,.9273,5.9345,2.2255l.1855,1.2981s4.82181,.371,5.1927,2.5964c.3709,2.2254-.37089,2.2254-1.6691,2.4109-1.2982,.1854-3.3382,.5564-3.3382,.5564l-3.52359,1.669s3.89449,0,5.00729,.1855c1.11271,.1854,4.4508,.3709,4.4508,2.04s-1.8545,2.04-3.33809,2.04-2.59641-.1855-4.26541,.3709c-1.6691,.5563-5.7491,3.5236-5.7491,3.5236,0,0,5.5636-1.1127,6.8618-1.1127s3.709,1.1127,3.3381,2.5963-1.669,1.4836-2.7818,1.1127l-1.1127-.3709s-8.15989,5.0073-9.2727,6.12c-1.1127,1.1127-6.1199,3.1527-7.4181,3.7091-1.2982,.5563-2.9672,.9272-2.9672,.9272l-19.6581-19.8435,3.1527-2.04Z" style="fill: rgb(255, 255, 255); stroke: rgb(38, 50, 56); stroke-linecap: round; stroke-linejoin: round; transform-origin: 307.389px 165.534px;" id="elfmioee61d2i" class="animable"></path><path d="M321.113,160.373s-3.65351,.8048-4.23411,1.1919-2.61289,1.3548-2.61289,1.3548" style="fill: none; stroke: rgb(38, 50, 56); stroke-linecap: round; stroke-linejoin: round; transform-origin: 317.69px 161.646px;" id="elyz81t5ilt7" class="animable"></path><path d="M296.65319,164.5649s5.0322,2.7097,6.8709,5.9032,1.74191,5.8064,1.74191,5.8064" style="fill: none; stroke: rgb(38, 50, 56); stroke-linecap: round; stroke-linejoin: round; transform-origin: 300.96px 170.42px;" id="el5m557rmyw1k" class="animable"></path><path d="M304.49189,168.5326s2.129,2.7097,1.9354,6.3871" style="fill: none; stroke: rgb(38, 50, 56); stroke-linecap: round; stroke-linejoin: round; transform-origin: 305.466px 171.726px;" id="elz526ekzl07" class="animable"></path></g><path d="M283.58909,152.6261s-11.2047-16.2978-15.4828-24.2429c-4.2782-7.9452-5.2968-11.001-15.6866-22.002s-13.2419-13.8531-23.63169-18.5387c-10.38981-4.6856-20.98341-7.334-26.89131-3.0558s-6.5191,6.7228-8.3526,8.9638c-1.8335,2.2409-3.667,4.0744-5.5005,4.0744s-8.76,.2037-9.9824,.4074c-1.2223,.2038-4.6856,2.4447-5.093,3.2596-.4075,.8149-4.2782,2.0372-5.7042,4.8893-1.4261,2.8521-1.8335,6.1117-3.4633,6.9265-1.6298,.8149-5.5005,4.2782-11.2047,7.1303-5.7042,2.8521-30.1508,27.095-30.1508,27.095l-3.8707,2.4447s-8.3526,.2037-8.7601,2.0372c-.4074,1.8335,0,2.8521,0,3.4633,0,.6111-7.7414,5.093-14.0568,14.0568-6.3153,8.9637-7.334,21.187-4.8893,22.2056,2.4447,1.0187,28.1136-2.6483,42.5779,2.6484,14.4642,5.2968,31.3731,15.0754,32.7992,16.9089,1.426,1.8335,8.9637,10.7973,11.8158,13.242,2.8521,2.4446,10.5936,11.0009,12.2233,10.3898,1.6298-.6112,4.0745,0,1.6298-7.334-2.4446-7.334-5.2967-7.7414-4.0744-10.3898s26.6875-15.0754,34.6327-21.5945c7.9451-6.5191,13.4456-13.242,13.4456-13.242,0,0-1.2223,9.1675,9.7787,8.3526,11.001-.8149,46.856,6.1117,50.1155,6.7229,3.25961,.6111,8.7601,6.1116,12.6308,1.0186,3.8707-5.0931,.8149-19.1499-6.5191-25.4653-7.334-6.3153-12.2233-9.7786-12.2233-9.7786,0,0,1.6298-1.6298-.4075-3.2596l-2.0372-1.6297-3.667-5.7042Z" style="fill: #CD0000; stroke: rgb(38, 50, 56); stroke-linecap: round; stroke-linejoin: round; transform-origin: 199.887px 158.796px;" id="elt8weo1xh8zj" class="animable"></path><polygon points="222.048 151.105 227.47639 190.1889 235.91819 182.3694 232.04749 167.4977 222.048 151.105" style="fill: rgb(38, 50, 56); stroke: rgb(38, 50, 56); stroke-linecap: round; stroke-linejoin: round; transform-origin: 228.983px 170.647px;" id="eldysd7f2uca" class="animable"></polygon><path d="M235.20819,166.9277s6.5837,11.933,10.2871,13.579" style="fill: none; stroke: rgb(38, 50, 56); stroke-linecap: round; stroke-linejoin: round; transform-origin: 240.352px 173.717px;" id="elbpp2elda0r" class="animable"></path><path d="M289.70079,163.2196s-.9997,17.2871-14.5786,20.9904" style="fill: none; stroke: rgb(38, 50, 56); stroke-linecap: round; stroke-linejoin: round; transform-origin: 282.411px 173.715px;" id="elp2v11gqeeip" class="animable"></path><path d="M200.395,121.5595c-5.9893-6.662-11.1291-12.3262-11.1291-12.3262" style="fill: none; stroke: rgb(38, 50, 56); stroke-linecap: round; stroke-linejoin: round; transform-origin: 194.83px 115.396px;" id="eldyqxs74csfb" class="animable"></path><path d="M235.91819,182.3694l-3.8707-14.8717s-16.094-28.521-24.4466-37.8922c-1.1622-1.304-2.356-2.6395-3.5501-3.9725" style="fill: none; stroke: rgb(38, 50, 56); stroke-linecap: round; stroke-linejoin: round; transform-origin: 219.985px 154.001px;" id="elac2ulio96o" class="animable"></path><path d="M198.91069,135.8257c6.84731,3.4847,14.9309,7.3086,19.4875,8.4478" style="fill: none; stroke: rgb(38, 50, 56); stroke-linecap: round; stroke-linejoin: round; transform-origin: 208.654px 140.05px;" id="el5lifrm0r4nt" class="animable"></path><path d="M186.8213,129.4018s2.6634,1.4877,6.5245,3.5325" style="fill: none; stroke: rgb(38, 50, 56); stroke-linecap: round; stroke-linejoin: round; transform-origin: 190.084px 131.168px;" id="elm4tvjf1ax2q" class="animable"></path><path d="M184.197,174.7967c1.2223,9.5809,.5871,15.7216,.5871,15.7216" style="fill: none; stroke: rgb(38, 50, 56); stroke-linecap: round; stroke-linejoin: round; transform-origin: 184.573px 182.658px;" id="elhaycqon8p58" class="animable"></path><path d="M179.3945,154.2498c1.4589,4.2493,2.5443,8.298,3.3484,12.0459" style="fill: none; stroke: rgb(38, 50, 56); stroke-linecap: round; stroke-linejoin: round; transform-origin: 181.069px 160.273px;" id="el59puo2p2bg4" class="animable"></path><path d="M169.5049,115.5487s0,11.4737,7.2323,31.4937" style="fill: none; stroke: rgb(38, 50, 56); stroke-linecap: round; stroke-linejoin: round; transform-origin: 173.121px 131.296px;" id="elpogeoo2fmu" class="animable"></path><path d="M115.9261,150.5888s17.1126,3.4633,30.762,27.7062c13.6493,24.2429,19.5573,33.0029,19.5573,33.0029,0,0,11.2047,15.4829,12.0196,11.001,.8148-4.4819-3.4633-18.1312-3.4633-18.1312,0,0,.4074-7.5377,10.1861-8.9638,9.7786-1.426,8.1489,1.8335,12.6307-.2037,4.4819-2.0372,11.8159-3.667,7.9452-4.6856-3.87069-1.0186-10.1861-3.0558-22.4094,.8149-12.2233,3.8707-13.2419,5.7042-13.2419,5.7042,0,0-9.1675-25.8727-21.1871-38.2997-12.0196-12.427-19.761-13.4457-23.0206-12.2233-3.2595,1.2223-9.7786,4.2781-9.7786,4.2781Z" style="fill: rgb(38, 50, 56); stroke: rgb(38, 50, 56); stroke-linecap: round; stroke-linejoin: round; transform-origin: 161.29px 184.516px;" id="elpjuz0knaix" class="animable"></path><path d="M110.4256,163.627l-10.3898,23.8355,39.9295,6.1116s-.4075-3.0558,1.8335-6.7228c2.2409-3.667,4.8893-7.9451,3.4632-7.7414-1.426,.2037-11.6121,6.1116-11.6121,6.1116,0,0-7.1303-7.7414-10.1861-12.2233-3.0558-4.4818-6.9265-8.76-6.9265-8.76l-6.1117-.6112Z" style="fill: rgb(255, 255, 255); stroke: rgb(38, 50, 56); stroke-linecap: round; stroke-linejoin: round; transform-origin: 122.85px 178.601px;" id="eljysmlf26rn" class="animable"></path><path d="M110.4256,163.627s-2.4447-2.0372-5.9079-.2037c-3.4633,1.8335-9.9824,9.5749-11.8159,17.1126-1.8335,7.5378,1.0186,10.5936,2.2409,10.7973,1.2224,.2037,5.0931-3.8707,5.0931-3.8707l10.3898-23.8355Z" style="fill: rgb(38, 50, 56); stroke: rgb(38, 50, 56); stroke-linecap: round; stroke-linejoin: round; transform-origin: 101.265px 176.999px;" id="elcs6qjn8zvvq" class="animable"></path><line x1="109.8144" y1="155.4782" x2="116.5373" y2="164.2382" style="fill: rgb(255, 255, 255); stroke: rgb(38, 50, 56); stroke-linecap: round; stroke-linejoin: round; transform-origin: 113.176px 159.858px;" id="elkxvmm9ysdpd" class="animable"></line><path d="M165.6342,115.9561c-.4074,.8149-7.1303,11.8159-5.7042,21.5945" style="fill: none; stroke: rgb(38, 50, 56); stroke-linecap: round; stroke-linejoin: round; transform-origin: 162.683px 126.753px;" id="el008liczx0tu93" class="animable"></path><g id="el41of8y93vwh" class="animable" style="transform-origin: 174.83px 321.147px;"><g id="elm7srznkc99" class="animable" style="transform-origin: 108.118px 432.599px;"><path d="M93.4195,411.8135s0,.8191-.0423,2.14c-.1215,3.7966-.5923,11.7393-2.4162,16.2991-2.4586,6.1464-10.1415,13.522-7.9903,19.361,2.1512,5.8391,11.6781,3.0732,18.4391,3.3805,6.761,.3074,27.044,.3074,30.1171-.9219,3.0732-1.2293,2.4586-3.6878,.3074-5.2244-2.1513-1.5366-4.3025,0-7.3757-3.0732-3.0731-3.0732-7.9902-1.2293-10.1415-10.4488-2.1512-9.2196-2.1512-13.8293-2.1512-14.7513,0-.9219-18.7464-6.761-18.7464-6.761Z" style="fill: rgb(255, 255, 255); stroke: rgb(38, 50, 56); stroke-linecap: round; stroke-linejoin: round; transform-origin: 108.118px 432.599px;" id="elsd6cxtp8x7q" class="animable"></path><polygon points="94.8863 418.9544 114.3171 433.3258 112.1659 418.5745 94.8863 418.9544" style="fill: rgb(38, 50, 56); stroke: rgb(38, 50, 56); stroke-linecap: round; stroke-linejoin: round; transform-origin: 104.602px 425.95px;" id="eluqmzileund8" class="animable"></polygon><path d="M131.5269,452.0721c3.0732-1.2292,2.4586-3.6878,.3074-5.2243-2.1512-1.5366-4.3025,0-7.3757-3.0732-2.3409-2.3409-5.7506-1.8339-8.1939-5.5317h-.1037s.6147,3.3805-3.0731,8.6049c-3.6879,5.2243-11.6781,6.1463-11.6781,6.1463,6.761,.3074,27.044,.3074,30.1171-.922Z" style="fill: rgb(255, 255, 255); stroke: rgb(38, 50, 56); stroke-linecap: round; stroke-linejoin: round; transform-origin: 117.526px 445.704px;" id="elsxn6rwc3n4" class="animable"></path></g><g id="elx7flzuicze" class="animable" style="transform-origin: 235.293px 434.248px;"><path d="M201.90279,409.355s-1.2293,24.8927-3.9951,32.2684c-2.7659,7.3756-.6147,13.522,11.0634,14.1366,11.6781,.6146,21.5123,1.2293,27.044,1.5366s25.5074,1.8439,31.9611,1.8439,7.0683-1.8439,3.9951-3.6878-8.6049-3.0732-10.7561-3.9952c-2.1513-.9219-22.7416-16.9024-26.4294-19.6683-3.68779-2.7659-5.5317-4.3025-5.5317-4.3025l-2.4586-16.9025-24.8927-1.2292Z" style="fill: rgb(255, 255, 255); stroke: rgb(38, 50, 56); stroke-linecap: round; stroke-linejoin: round; transform-origin: 235.293px 434.248px;" id="elvv55yqk2sic" class="animable"></path><polygon points="211.35419 417.0944 229.25409 427.4867 226.79549 410.5842 211.35419 417.0944" style="fill: rgb(38, 50, 56); stroke: rgb(38, 50, 56); stroke-linecap: round; stroke-linejoin: round; transform-origin: 220.304px 419.035px;" id="elx9eknnyvws" class="animable"></polygon><path d="M211.42959,426.8721s-1.5365,6.1464,.30741,7.683c1.84389,1.5365,3.38049,1.8439,3.38049,1.8439" style="fill: none; stroke: rgb(38, 50, 56); stroke-linecap: round; stroke-linejoin: round; transform-origin: 212.973px 431.636px;" id="elhq51ob1e4vf" class="animable"></path></g><path d="M160.3374,204.1677s-11.2047-16.094-26.6875-18.9462c-15.4829-2.8521-29.336-2.8521-36.4662,.6112-7.1303,3.4633-20.7796,26.0764-21.1871,37.6885-.4074,11.6122,.6112,26.0764,.6112,26.0764,0,0,15.2751,93.684,15.2751,95.5279s-3.6878,35.9562-2.7658,49.1709c.9219,13.2147,1.2292,22.4342,1.2292,22.4342,0,0,3.6878,4.3025,15.6732,4.9171,11.9855,.6146,27.3514-.3073,27.966-2.1512s1.5366-13.8293-.6146-24.2782c-2.1513-10.4488-6.4537-19.9756-6.4537-22.1269s11.0634-11.9854,14.7512-24.5854c3.6879-12.6,4.3025-49.7855,4.3025-49.7855,0,0,39.0294,47.0196,43.3318,52.5514,4.3025,5.5317,8.9123,15.6732,8.9123,16.5951,0,.922,1.84389,12.6001,3.07309,20.283,1.2293,7.683-1.2292,27.044-.3073,27.6587,.922,.6146,13.2147,3.6878,24.5855-.6147,11.37071-4.3024,31.9611-6.761,32.57571-8.6049,.61459-1.8439-9.21951-67.9173-11.37081-78.0588-2.15119-10.1415-1.5366-16.2878-5.5317-26.122s-7.0683-14.7513-8.2976-17.2098c-1.2293-2.4586-23.9708-29.8099-33.805-43.3319s-38.7995-37.6989-38.7995-37.6989Z" style="fill: #CD0000; stroke: rgb(38, 50, 56); stroke-linecap: round; stroke-linejoin: round; transform-origin: 167.035px 302.495px;" id="elag9gyp5opct" class="animable"></path><path d="M104.4665,260.8611l28.7029,101.3762s7.9391-8.8551,8.8551-18.6263c.9161-9.7712,3.9464-44.8905,3.9464-44.8905l-41.5044-37.8594Z" style="fill: rgb(38, 50, 56); stroke: rgb(38, 50, 56); stroke-linecap: round; stroke-linejoin: round; transform-origin: 125.219px 311.549px;" id="elfq2sx90xl9" class="animable"></path><path d="M89.4244,212.3641s-6.1464,16.2878,.6146,30.4245c4.4235,9.249,25.4223,28.8906,39.4137,41.3666" style="fill: none; stroke: rgb(38, 50, 56); stroke-linecap: round; stroke-linejoin: round; transform-origin: 108.159px 248.26px;" id="elpxtzc0122l" class="animable"></path><path d="M144.349,275.023c17.9109,11.2844,44.6707,27.3554,58.78309,31.9951,22.4342,7.3756,32.2684,4.917,26.7366,.3073" style="fill: none; stroke: rgb(38, 50, 56); stroke-linecap: round; stroke-linejoin: round; transform-origin: 187.864px 293.362px;" id="el2rkzx0985n4" class="animable"></path><path d="M126.3025,263.3789s5.502,3.6679,13.7278,8.908" style="fill: none; stroke: rgb(38, 50, 56); stroke-linecap: round; stroke-linejoin: round; transform-origin: 133.166px 267.833px;" id="ely5t6bgslq5o" class="animable"></path><path d="M118.2845,350.0569c2.2752,7.5815,4.0592,12.8571,4.9449,14.1223" style="fill: none; stroke: rgb(38, 50, 56); stroke-linecap: round; stroke-linejoin: round; transform-origin: 120.757px 357.118px;" id="elhbgx9ivxf1j" class="animable"></path><path d="M96.6231,269.7769c4.5255,17.6188,12.9383,49.9904,19.2181,71.9243" style="fill: none; stroke: rgb(38, 50, 56); stroke-linecap: round; stroke-linejoin: round; transform-origin: 106.232px 305.739px;" id="el131760z4xvxm" class="animable"></path><path d="M93.4195,257.2325s.7696,3.0412,2.0639,8.0992" style="fill: none; stroke: rgb(38, 50, 56); stroke-linecap: round; stroke-linejoin: round; transform-origin: 94.4515px 261.282px;" id="elgztl4cgen8r" class="animable"></path><path d="M100.1805,299.9497s1.8439,50.4002,8.2976,70.3759" style="fill: none; stroke: rgb(38, 50, 56); stroke-linecap: round; stroke-linejoin: round; transform-origin: 104.329px 335.138px;" id="elcgenhapvsy" class="animable"></path><line x1="92.4976" y1="342.9743" x2="95.2634" y2="317.7742" style="fill: none; stroke: rgb(38, 50, 56); stroke-linecap: round; stroke-linejoin: round; transform-origin: 93.8805px 330.374px;" id="elvycjg6l87nn" class="animable"></line><path d="M121.3855,187.7786s-.3074,3.9952,6.4536,16.5952" style="fill: none; stroke: rgb(38, 50, 56); stroke-linecap: round; stroke-linejoin: round; transform-origin: 124.611px 196.076px;" id="elpgjrr9m19s8" class="animable"></path><path d="M117.6976,186.5494s-1.5366,11.0634,.3074,20.283" style="fill: none; stroke: rgb(38, 50, 56); stroke-linecap: round; stroke-linejoin: round; transform-origin: 117.551px 196.691px;" id="elonmh9dtt3k" class="animable"></path><path d="M203.959,287.8115c3.03459,3.6908,5.51109,6.6243,7.16329,8.4504" style="fill: none; stroke: rgb(38, 50, 56); stroke-linecap: round; stroke-linejoin: round; transform-origin: 207.541px 292.037px;" id="eldswhmp9ioo6" class="animable"></path><path d="M146.5855,215.13s34.3956,44.3943,53.8253,68.3353" style="fill: none; stroke: rgb(38, 50, 56); stroke-linecap: round; stroke-linejoin: round; transform-origin: 173.498px 249.298px;" id="elra1zwp0si2m" class="animable"></path><path d="M233.787,339.4305c1.44059,3.7743,2.68909,7.3852,3.45739,10.3048,3.0731,11.6781,5.839,17.8244,3.9951,30.4245-1.8439,12.6,.3073,25.8147,.3073,25.8147" style="fill: none; stroke: rgb(38, 50, 56); stroke-linecap: round; stroke-linejoin: round; transform-origin: 237.81px 372.703px;" id="elocj3nt5pb7" class="animable"></path><path d="M223.41509,315.3156s4.6132,9.7537,8.6604,19.7659" style="fill: none; stroke: rgb(38, 50, 56); stroke-linecap: round; stroke-linejoin: round; transform-origin: 227.745px 325.199px;" id="elfzq2kpot5zm" class="animable"></path><path d="M233.41569,387.1064c-1.7895,4.3632-3.8775,8.3903-6.3128,11.7998" style="fill: none; stroke: rgb(38, 50, 56); stroke-linecap: round; stroke-linejoin: round; transform-origin: 230.259px 393.006px;" id="elc66wmifa1fv" class="animable"></path><path d="M244.00539,331.2962s-.8331,24.9927-7.4067,46.7608" style="fill: none; stroke: rgb(38, 50, 56); stroke-linecap: round; stroke-linejoin: round; transform-origin: 240.302px 354.677px;" id="elym408mivval" class="animable"></path><path d="M226.79549,359.8768s-13.2146,12.9073-18.1317,14.1366-10.1415-2.1512-3.68779-4.3025" style="fill: none; stroke: rgb(38, 50, 56); stroke-linecap: round; stroke-linejoin: round; transform-origin: 214.383px 367.076px;" id="elioibgc30mme" class="animable"></path></g><g id="elhp7rujmljst" class="animable" style="transform-origin: 162.344px 108.769px;"><path d="M172.9682,101.4919s-6.1931-3.0179-8.9549-3.7851c-2.7618-.7671-4.2962,1.5344-4.4496,2.9153l-.1534,1.3809s-3.6825-.1535-4.1428,1.9946-.3068,3.0687-.3068,3.0687c0,0-1.6878,1.8412-1.6878,3.3755s-.7672,2.4549-.7672,2.4549c0,0-1.2274,.1535-.6137,2.3015,.6137,2.1481,3.0687,4.4496,3.8358,4.7565,.7672,.3068,4.4496-1.8412,4.4496-1.8412,0,0,6.2908-2.7618,7.9786-4.9099,1.6877-2.1481,1.8412-4.2961,1.6877-6.2908-.1534-1.9946-.1534-3.6824-.1534-3.6824,0,0,2.8734-.1015,3.2779-1.7385Z" style="fill: rgb(255, 255, 255); stroke: rgb(38, 50, 56); stroke-linecap: round; stroke-linejoin: round; transform-origin: 162.344px 108.769px;" id="elvobw9t0bj" class="animable"></path><path d="M159.4103,102.003s1.5343,4.9098,3.0686,6.4442c1.5344,1.5343,5.2168,3.3755,5.2168,3.3755" style="fill: none; stroke: rgb(38, 50, 56); stroke-linecap: round; stroke-linejoin: round; transform-origin: 163.553px 106.913px;" id="ela1s4zxs9pd7" class="animable"></path><path d="M154.9607,107.0663s1.2275,4.603,3.0687,5.8304c1.8412,1.2275,4.9098,2.1481,4.9098,2.1481" style="fill: none; stroke: rgb(38, 50, 56); stroke-linecap: round; stroke-linejoin: round; transform-origin: 158.95px 111.056px;" id="elaygrzih7kq" class="animable"></path><path d="M152.5057,112.8967s1.8412,2.7618,3.529,3.529,4.1427,1.6878,4.1427,1.6878" style="fill: none; stroke: rgb(38, 50, 56); stroke-linecap: round; stroke-linejoin: round; transform-origin: 156.342px 115.505px;" id="elfaw1bxfnk3i" class="animable"></path><line x1="169.6903" y1="103.2304" x2="168.9231" y2="101.6961" style="fill: none; stroke: rgb(38, 50, 56); stroke-linecap: round; stroke-linejoin: round; transform-origin: 169.307px 102.463px;" id="ell1yyw0itj5p" class="animable"></line></g><path d="M324.45119,153.1403s-3.6046-.1883-4.5723,.0053c-.9677,.1935-9.87089,4.1613-9.87089,4.1613" style="fill: none; stroke: rgb(38, 50, 56); stroke-linecap: round; stroke-linejoin: round; transform-origin: 317.23px 155.183px;" id="el61uv0g7ez8x" class="animable"></path></g></g></g><defs>     <filter id="active" height="200%">         <feMorphology in="SourceAlpha" result="DILATED" operator="dilate" radius="2"></feMorphology>                <feFlood flood-color="#32DFEC" flood-opacity="1" result="PINK"></feFlood>        <feComposite in="PINK" in2="DILATED" operator="in" result="OUTLINE"></feComposite>        <feMerge>            <feMergeNode in="OUTLINE"></feMergeNode>            <feMergeNode in="SourceGraphic"></feMergeNode>        </feMerge>    </filter>    <filter id="hover" height="200%">        <feMorphology in="SourceAlpha" result="DILATED" operator="dilate" radius="2"></feMorphology>                <feFlood flood-color="#ff0000" flood-opacity="0.5" result="PINK"></feFlood>        <feComposite in="PINK" in2="DILATED" operator="in" result="OUTLINE"></feComposite>        <feMerge>            <feMergeNode in="OUTLINE"></feMergeNode>            <feMergeNode in="SourceGraphic"></feMergeNode>        </feMerge>            <feColorMatrix type="matrix" values="0   0   0   0   0                0   1   0   0   0                0   0   0   0   0                0   0   0   1   0 "></feColorMatrix>    </filter></defs></svg>